<mxfile host="app.diagrams.net" modified="2023-03-28T06:44:01.318Z" agent="Mozilla/5.0 (Windows NT 10.0; WOW64) AppleWebKit/537.36 (KHTML, like Gecko) Chrome/92.0.4515.131 Safari/537.36 SLBrowser/8.0.0.12022 SLBChan/103" version="21.1.1" etag="oj24X13HOqdM_W7H-Gom" type="github">
  <diagram name="第 1 页" id="U64rioDHdDpyl7Hwh31x">
    <mxGraphModel>
      <root>
        <mxCell id="0" />
        <mxCell id="1" parent="0" />
      </root>
    </mxGraphModel>
  </diagram>
</mxfile>
